<svg xmlns="http://www.w3.org/2000/svg" width="96.795" height="80" viewBox="0 0 96.795 80">
  <g id="Group_794" data-name="Group 794" transform="translate(0 -44.419)">
    <path id="Path_756" data-name="Path 756" d="M95.469,113.071a4.392,4.392,0,0,0-3.178-1.244,27.541,27.541,0,0,1-17.435-5.05c-4.783-3.456-8.522-8.479-11.636-13.513-1.741-2.815-3.383-6.323-8.081-9.87C49.324,79,41.547,77.054,34.433,77.036V67.411L44.946,75.3a33.2,33.2,0,0,1,13.248,6.6,29.033,29.033,0,0,1,6.681,8.171l1.9-.836,1.131,5.614a39.945,39.945,0,0,0,7.427,8.435,3.139,3.139,0,0,0,.291-2.071L72.2,84.188A3.155,3.155,0,0,0,67.86,81.91l-4.435,1.9L60.669,72.732,71.351,58.147a2.63,2.63,0,0,0-4.243-3.107l-10.8,14.748-7.365,1.941L34.433,60.835V59.1a3.255,3.255,0,0,0-1.21-2.532L18.943,45.029a2.748,2.748,0,0,0-3.453,0L1.21,56.563A3.256,3.256,0,0,0,0,59.1v63.717a1.606,1.606,0,0,0,1.606,1.606h3.85a1.607,1.607,0,0,0,1.607-1.606V105.784H27.37v17.029a1.606,1.606,0,0,0,1.606,1.606h3.85a1.607,1.607,0,0,0,1.607-1.606v-33a31.711,31.711,0,0,1,12.438,3.872,22.648,22.648,0,0,1,8.3,8.228c4.407,7.546,8.335,12.472,12.737,15.97,7.306,5.806,15.706,7.308,25.049,6.146h.005a4.381,4.381,0,0,0,3.838-4.355v-3.46a4.39,4.39,0,0,0-1.326-3.144Zm-68.1-12.8H7.063V92.541H27.37Zm0-13.243H7.063V79.081H27.37Z" fill="#fff"/>
    <path id="Path_757" data-name="Path 757" d="M403.728,258.508c-10.981-8.767-10.2-8.162-10.465-8.321.092.325-.064-.412,1.952,9.6l4.576,3.653a3.155,3.155,0,1,0,3.937-4.932Z" transform="translate(-318.915 -166.866)" fill="#fff"/>
    <circle id="Ellipse_34" data-name="Ellipse 34" cx="6.135" cy="6.135" r="6.135" transform="translate(45.148 57.597)" fill="#fff"/>
  </g>
</svg>
