<svg xmlns="http://www.w3.org/2000/svg" width="80" height="80" viewBox="0 0 80 80">
  <g id="Group_798" data-name="Group 798" transform="translate(0 -0.5)">
    <path id="Path_761" data-name="Path 761" d="M20.059,144.433H16.472a2.356,2.356,0,0,0-2.163,1.423L4.377,168.982l23.586-12.047A111.224,111.224,0,0,1,20.059,144.433Zm45.632,1.423a2.355,2.355,0,0,0-2.163-1.423H59.941a125.852,125.852,0,0,1-14.614,21.058,7.072,7.072,0,0,1-10.654,0c-.287-.33-1.788-2.068-3.856-4.74l-4.252,2.173,16.085,16.054,30.478-15.8ZM1.475,175.74.192,178.728A2.349,2.349,0,0,0,2.355,182H36.894a9.546,9.546,0,0,1,1.378-.752L22.163,165.173Zm78.333,2.988-4.819-11.222L47.029,182H77.645A2.35,2.35,0,0,0,79.808,178.728ZM42.353,123.145A2.353,2.353,0,1,0,40,125.493,2.353,2.353,0,0,0,42.353,123.145Zm0,0" transform="translate(0 -101.501)" fill="#fff"/>
    <path id="Path_762" data-name="Path 762" d="M143.428,60.752c.792-.909,19.4-22.434,19.4-37.23,0-30.51-42.351-30.883-42.351,0,0,14.8,18.608,36.321,19.4,37.23a2.357,2.357,0,0,0,3.551,0Zm-8.834-39.108a7.058,7.058,0,1,1,7.059,7.043A7.059,7.059,0,0,1,134.594,21.644Zm0,0" transform="translate(-101.652 0)" fill="#fff"/>
  </g>
</svg>
