<svg xmlns="http://www.w3.org/2000/svg" width="104.002" height="80" viewBox="0 0 104.002 80">
  <g id="Group_795" data-name="Group 795" transform="translate(0 -52.552)">
    <path id="Path_758" data-name="Path 758" d="M53.888,52.552q.134,3.319.267,6.637H49.849l.267-6.637H39.637q-10.532,40-21.066,80H46.9l.267-6.637h9.667q.134,3.319.267,6.637h28.33q-10.532-40-21.066-80H53.888ZM49.449,69.127h5.1q.371,9.228.742,18.456H48.707q.372-9.227.742-18.456Zm-1.882,46.849q.37-9.228.742-18.456h7.386q.371,9.228.742,18.456H47.567ZM71.235,52.552H67.667q13.346,40,26.691,80H104Q87.619,92.551,71.235,52.552Zm-38.467,0q-16.384,40-32.768,80H9.645l26.691-80Z" fill="#fff"/>
  </g>
</svg>
