<svg xmlns="http://www.w3.org/2000/svg" width="80" height="80" viewBox="0 0 80 80">
  <g id="Group_793" data-name="Group 793" transform="translate(0 0)">
    <path id="Path_755" data-name="Path 755" d="M72.968,20.625H80V4.9a2.344,2.344,0,0,0-4-1.658L3.242,76A2.344,2.344,0,0,0,4.9,80H20.625V73.75a2.344,2.344,0,1,1,4.687,0V80h6.25V73.75a2.344,2.344,0,1,1,4.687,0V80H42.5V73.75a2.344,2.344,0,1,1,4.687,0V80h6.25V73.75a2.344,2.344,0,1,1,4.687,0V80h6.25V73.75a2.344,2.344,0,1,1,4.687,0V80h8.594A2.345,2.345,0,0,0,80,77.656V69.062H73.75a2.344,2.344,0,0,1,0-4.687H80v-6.25H73.75a2.344,2.344,0,0,1,0-4.687H80v-6.25H73.75a2.344,2.344,0,0,1,0-4.687H80V36.25H73.75a2.344,2.344,0,0,1,0-4.688H80v-6.25H72.968a2.344,2.344,0,0,1,0-4.687ZM65.937,63.593a2.345,2.345,0,0,1-2.344,2.344H38.85a2.344,2.344,0,0,1-1.658-4L61.936,37.192a2.344,2.344,0,0,1,4,1.658ZM7.233,45.378l9.944,9.944L10.63,61.867a2.344,2.344,0,0,1-3.314,0l-6.63-6.63a2.344,2.344,0,0,1,0-3.314ZM54.459,17.393c.219,0,.441-.006.664-.019L20.491,52.007l-9.944-9.944L44.723,7.887a9.623,9.623,0,0,0,2.748,6.756A9.666,9.666,0,0,0,54.459,17.393ZM62.328,3.348l-4.006,8.444c-2.864,1.306-5.834,1.237-7.536-.464-1.542-1.542-1.742-4.128-.792-6.733L59.2.226a2.344,2.344,0,0,1,3.123,3.122Z" transform="translate(0 0)" fill="#fff"/>
  </g>
</svg>
