<svg id="Group_796" data-name="Group 796" xmlns="http://www.w3.org/2000/svg" width="80" height="80" viewBox="0 0 80 80">
  <path id="Path_759" data-name="Path 759" d="M75.313,65.938V32.969H47.031V18.75H63.594A11.732,11.732,0,0,0,75.313,7.031V0H70.625a4.693,4.693,0,0,1-4.687,4.688H32.969V32.969H18.75V16.406A11.732,11.732,0,0,0,7.031,4.688H0V9.375a4.693,4.693,0,0,1,4.688,4.688V47.031H32.969V61.25H16.406A11.732,11.732,0,0,0,4.688,72.969V80H9.375a4.693,4.693,0,0,1,4.688-4.688H47.031V47.031H61.25V63.594A11.732,11.732,0,0,0,72.969,75.313H80V70.625A4.693,4.693,0,0,1,75.313,65.938Z" fill="#fff"/>
  <path id="Path_760" data-name="Path 760" d="M179.125,151h4.688v4.688h-4.687Zm0,28.125h4.688v4.688h-4.687ZM151,151h4.688v4.688H151Zm0,28.125h4.688v4.688H151Z" transform="translate(-127.406 -127.406)" fill="#fff"/>
</svg>
